<svg width="1024" height="1024" viewBox="0 0 1024 1024" fill="none" xmlns="http://www.w3.org/2000/svg">
<rect y="0.000976562" width="1024" height="1024" rx="207.507" fill="#272D31"/>
<path d="M913.904 334.503C917.165 332.932 916.422 326.595 913.049 325.282C841.305 297.376 751.345 262.391 650.35 223.11C520.75 170.796 406.931 219.86 346.418 324.57L310.58 416.521C286.64 477.944 265.358 532.551 243.279 589.199C241.557 593.617 243.36 598.754 247.782 600.474L416.66 666.156C470.717 684.003 540.155 652.6 572.191 596.496L601.199 522.069C603.158 517.043 601.053 511.22 596.021 509.263L502.21 472.748C517.036 434.708 557.431 407.246 595.956 422.23L700.815 463.013L623.246 662.036C579.122 731.218 512.595 768.197 427.722 747.885L188.754 654.942C186.15 653.93 184.121 654.116 181.609 655.338L175.378 658.368C151.049 670.2 140.765 675.202 111.096 689.497C107.835 691.068 108.578 697.405 111.951 698.718C183.695 726.624 273.655 761.609 374.65 800.89C504.25 853.204 618.069 804.14 678.582 699.43L714.42 607.479C738.36 546.056 759.642 491.449 781.721 434.801C783.443 430.383 781.64 425.246 777.218 423.526L608.34 357.844C554.283 339.997 484.845 371.4 452.809 427.504L423.801 501.931C421.842 506.957 423.947 512.78 428.979 514.737L522.51 551.115C507.684 589.155 467.569 616.754 429.044 601.77L324.185 560.987L401.754 361.964C445.878 292.782 512.405 255.803 597.278 276.115L836.246 369.058C838.85 370.07 840.879 369.884 843.391 368.662L849.623 365.631C873.951 353.8 884.235 348.798 913.904 334.503Z" fill="#0073E6"/>
</svg>
